<svg width="61" height="74" viewBox="0 0 61 74" fill="none" xmlns="http://www.w3.org/2000/svg">
<path d="M1.99193 51.0028H1.12793V42.5068H3.62393C4.03993 42.5068 4.42393 42.5468 4.77593 42.6268C5.13593 42.7068 5.44393 42.8388 5.69993 43.0228C5.96393 43.1988 6.16793 43.4308 6.31193 43.7188C6.45593 44.0068 6.52793 44.3588 6.52793 44.7748C6.52793 45.0868 6.47193 45.3708 6.35993 45.6268C6.24793 45.8828 6.09593 46.1068 5.90393 46.2988C5.71193 46.4828 5.48393 46.6308 5.21993 46.7428C4.95593 46.8548 4.66793 46.9268 4.35593 46.9588L6.83993 51.0028H5.78393L3.43193 47.0308H1.99193V51.0028ZM1.99193 46.2868H3.49193C4.18793 46.2868 4.72393 46.1628 5.09993 45.9148C5.47593 45.6588 5.66393 45.2788 5.66393 44.7748C5.66393 44.4948 5.61193 44.2588 5.50793 44.0668C5.40393 43.8748 5.25993 43.7188 5.07593 43.5988C4.89193 43.4788 4.66793 43.3908 4.40393 43.3348C4.13993 43.2788 3.84793 43.2508 3.52793 43.2508H1.99193V46.2868ZM8.25152 51.0028H7.30352L10.9755 42.5068H11.8155L15.4635 51.0028H14.5035L13.5675 48.7708H9.17552L8.25152 51.0028ZM9.49952 47.9788H13.2435L11.3715 43.4668L9.49952 47.9788ZM16.7138 42.5068H17.5778V46.1908H22.2098V42.5068H23.0738V51.0028H22.2098V46.9828H17.5778V51.0028H16.7138V42.5068ZM31.3511 49.7428H31.3751V42.5068H32.2391V51.0028H31.1591L26.2151 43.6948H26.1911V51.0028H25.3271V42.5068H26.4071L31.3511 49.7428ZM35.3552 50.2348H39.9032V51.0028H34.4912V42.5068H39.7592V43.2748H35.3552V46.2028H39.4712V46.9588H35.3552V50.2348ZM45.7927 49.5388H45.8047L48.6487 42.5068H49.9687V51.0028H49.1047V43.6228H49.0807L46.0087 51.0028H45.5527L42.4807 43.6228H42.4567V51.0028H41.5927V42.5068H42.9127L45.7927 49.5388ZM52.1617 51.0028H51.2137L54.8857 42.5068H55.7257L59.3737 51.0028H58.4137L57.4777 48.7708H53.0857L52.1617 51.0028ZM53.4097 47.9788H57.1536L55.2817 43.4668L53.4097 47.9788Z" fill="#706F6F"/>
<path d="M9.96954 66.5205C9.81354 66.7545 9.62287 66.9755 9.39754 67.1835C9.18087 67.3915 8.92521 67.5735 8.63054 67.7295C8.34454 67.8855 8.02387 68.0067 7.66854 68.0934C7.32187 68.1887 6.94054 68.2365 6.52454 68.2365C5.83121 68.2365 5.18987 68.1152 4.60054 67.8725C4.01121 67.6298 3.50421 67.2961 3.07954 66.8714C2.65487 66.4381 2.32121 65.9268 2.07854 65.3375C1.84454 64.7482 1.72754 64.1025 1.72754 63.4005C1.72754 62.6985 1.84887 62.0528 2.09154 61.4635C2.33421 60.8742 2.66787 60.3672 3.09254 59.9425C3.52587 59.5092 4.03287 59.1712 4.61354 58.9285C5.20287 58.6858 5.83987 58.5645 6.52454 58.5645C6.86254 58.5645 7.19187 58.5992 7.51254 58.6685C7.84187 58.7378 8.14954 58.8375 8.43554 58.9675C8.72154 59.0888 8.98154 59.2405 9.21554 59.4225C9.44954 59.5958 9.64454 59.7952 9.80054 60.0205L9.02054 60.5925C8.92521 60.4452 8.79521 60.2978 8.63054 60.1505C8.47454 60.0032 8.28821 59.8732 8.07154 59.7605C7.85487 59.6478 7.61654 59.5568 7.35654 59.4875C7.10521 59.4182 6.83221 59.3835 6.53754 59.3835C5.93954 59.3835 5.40221 59.4918 4.92554 59.7085C4.45754 59.9252 4.05887 60.2198 3.72954 60.5925C3.40021 60.9565 3.14887 61.3812 2.97554 61.8665C2.80221 62.3518 2.71554 62.8632 2.71554 63.4005C2.71554 63.9378 2.80221 64.4492 2.97554 64.9345C3.15754 65.4198 3.41321 65.8488 3.74254 66.2215C4.07187 66.5855 4.47054 66.8757 4.93854 67.0924C5.41521 67.3091 5.94821 67.4175 6.53754 67.4175C7.06621 67.4175 7.56887 67.3091 8.04554 67.0924C8.52221 66.8757 8.92087 66.5291 9.24154 66.0524L9.96954 66.5205ZM20.5256 63.4005C20.5256 64.1025 20.4043 64.7482 20.1616 65.3375C19.9189 65.9268 19.5809 66.4381 19.1476 66.8714C18.7229 67.2961 18.2159 67.6298 17.6266 67.8725C17.0459 68.1152 16.4133 68.2365 15.7286 68.2365C15.0439 68.2365 14.4069 68.1152 13.8176 67.8725C13.2369 67.6298 12.7299 67.2961 12.2966 66.8714C11.8719 66.4381 11.5383 65.9268 11.2956 65.3375C11.0529 64.7482 10.9316 64.1025 10.9316 63.4005C10.9316 62.6985 11.0529 62.0528 11.2956 61.4635C11.5383 60.8742 11.8719 60.3672 12.2966 59.9425C12.7299 59.5092 13.2369 59.1712 13.8176 58.9285C14.4069 58.6858 15.0439 58.5645 15.7286 58.5645C16.4133 58.5645 17.0459 58.6858 17.6266 58.9285C18.2159 59.1712 18.7229 59.5092 19.1476 59.9425C19.5809 60.3672 19.9189 60.8742 20.1616 61.4635C20.4043 62.0528 20.5256 62.6985 20.5256 63.4005ZM19.5376 63.4005C19.5376 62.8632 19.4509 62.3518 19.2776 61.8665C19.1043 61.3812 18.8529 60.9565 18.5236 60.5925C18.1943 60.2198 17.7913 59.9252 17.3146 59.7085C16.8466 59.4918 16.3179 59.3835 15.7286 59.3835C15.1393 59.3835 14.6063 59.4918 14.1296 59.7085C13.6616 59.9252 13.2629 60.2198 12.9336 60.5925C12.6043 60.9565 12.3529 61.3812 12.1796 61.8665C12.0063 62.3518 11.9196 62.8632 11.9196 63.4005C11.9196 63.9378 12.0063 64.4492 12.1796 64.9345C12.3529 65.4198 12.6043 65.8445 12.9336 66.2085C13.2629 66.5725 13.6616 66.8627 14.1296 67.0794C14.6063 67.2961 15.1393 67.4045 15.7286 67.4045C16.3179 67.4045 16.8466 67.2961 17.3146 67.0794C17.7913 66.8627 18.1943 66.5725 18.5236 66.2085C18.8529 65.8445 19.1043 65.4198 19.2776 64.9345C19.4509 64.4492 19.5376 63.9378 19.5376 63.4005ZM23.4065 67.1705H27.6965V68.0025H22.4705V58.7985H23.4065V67.1705ZM30.0335 67.1705H34.3235V68.0025H29.0975V58.7985H30.0335V67.1705ZM36.6604 67.1705H41.5874V68.0025H35.7244V58.7985H41.4314V59.6305H36.6604V62.8025H41.1194V63.6215H36.6604V67.1705ZM50.3988 60.4495C50.0781 60.1115 49.6968 59.8515 49.2548 59.6695C48.8128 59.4788 48.3058 59.3835 47.7338 59.3835C47.1445 59.3835 46.6115 59.4918 46.1348 59.7085C45.6668 59.9252 45.2681 60.2198 44.9388 60.5925C44.6095 60.9565 44.3538 61.3812 44.1718 61.8665C43.9985 62.3518 43.9118 62.8632 43.9118 63.4005C43.9118 63.9378 43.9985 64.4492 44.1718 64.9345C44.3538 65.4198 44.6095 65.8445 44.9388 66.2085C45.2681 66.5725 45.6668 66.8627 46.1348 67.0794C46.6115 67.2961 47.1445 67.4045 47.7338 67.4045C48.2538 67.4045 48.7305 67.3482 49.1638 67.2355C49.5971 67.1228 49.9481 66.9798 50.2168 66.8065V64.0115H48.0718V63.1925H51.1528V67.3395C50.6501 67.6428 50.1085 67.8682 49.5278 68.0155C48.9471 68.1628 48.3448 68.2365 47.7208 68.2365C47.0275 68.2365 46.3861 68.1152 45.7968 67.8725C45.2075 67.6298 44.7005 67.2961 44.2758 66.8714C43.8511 66.4381 43.5175 65.9268 43.2748 65.3375C43.0408 64.7482 42.9238 64.1025 42.9238 63.4005C42.9238 62.6985 43.0451 62.0528 43.2878 61.4635C43.5305 60.8742 43.8641 60.3672 44.2888 59.9425C44.7221 59.5092 45.2291 59.1712 45.8098 58.9285C46.3991 58.6858 47.0361 58.5645 47.7208 58.5645C48.4575 58.5645 49.0988 58.6728 49.6448 58.8895C50.1908 59.1062 50.6588 59.4095 51.0488 59.7995L50.3988 60.4495ZM54.4846 67.1705H59.4116V68.0025H53.5486V58.7985H59.2556V59.6305H54.4846V62.8025H58.9436V63.6215H54.4846V67.1705Z" fill="#F6921E"/>
<path d="M16.312 10.9836V11.0146C13.227 7.28965 9.689 4.38965 6.157 4.38965C3.8 4.38965 0 6.80665 0 6.80665C6.048 7.75465 7.258 15.8496 7.2 21.4896L26.161 30.6546C26.2791 30.7139 26.415 30.7271 26.5423 30.6918C26.6696 30.6565 26.7792 30.5752 26.85 30.4636L27.419 29.5636C27.573 28.8586 22.547 18.2056 16.312 10.9836Z" fill="url(#paint0_linear_38_1861)"/>
<path d="M40.0558 1.30259C23.7208 -6.09141 9.00576 20.3496 8.01676 21.6026C7.92376 21.7186 7.76976 21.7186 7.67676 21.7606L33.6348 33.9456C33.7407 34.004 33.8655 34.018 33.9818 33.9846C34.039 33.9683 34.0924 33.9408 34.1389 33.9037C34.1854 33.8666 34.2241 33.8207 34.2528 33.7686C34.7968 32.8306 36.2858 30.2686 37.2068 28.9366C43.4118 19.9176 49.7288 14.7926 58.9188 11.6366C59.0013 11.61 59.0742 11.5598 59.1284 11.4921C59.1825 11.4245 59.2156 11.3424 59.2235 11.2561C59.2314 11.1697 59.2137 11.083 59.1727 11.0066C59.1317 10.9303 59.0691 10.8677 58.9928 10.8266C55.6618 9.10259 44.2708 3.21959 40.0558 1.30259Z" fill="url(#paint1_linear_38_1861)"/>
<defs>
<linearGradient id="paint0_linear_38_1861" x1="1.28886" y1="5.52147" x2="25.2702" y2="31.982" gradientUnits="userSpaceOnUse">
<stop stop-color="#EB5A67"/>
<stop offset="0.12" stop-color="#E85766"/>
<stop offset="0.21" stop-color="#E04D61"/>
<stop offset="0.29" stop-color="#D33D5A"/>
<stop offset="0.37" stop-color="#C02650"/>
<stop offset="0.44" stop-color="#A70943"/>
<stop offset="0.45" stop-color="#A30441"/>
</linearGradient>
<linearGradient id="paint1_linear_38_1861" x1="36.3893" y1="0.17001" x2="33.767" y2="33.6533" gradientUnits="userSpaceOnUse">
<stop offset="0.02" stop-color="#F39200"/>
<stop offset="0.35" stop-color="#F28E00"/>
<stop offset="0.64" stop-color="#F18301"/>
<stop offset="0.89" stop-color="#EE7402"/>
</linearGradient>
</defs>
</svg>
